<svg xmlns="http://www.w3.org/2000/svg" version="1.1" viewBox="-5.0 -10.0 110.0 135.0">
 <path fill="#A87FFB" d="m42.949 37.109 10.559 3.6797c2.6719 0.92969 4.7695 3.0312 5.6992 5.6992l3.6797 10.559c0.92969 2.6602 4.6914 2.6602 5.6211 0l3.6797-10.559c0.92969-2.6719 3.0312-4.7695 5.6992-5.6992l10.559-3.6797c2.6602-0.92969 2.6602-4.6914 0-5.6211l-10.559-3.6797c-2.6719-0.92969-4.7695-3.0312-5.6992-5.6992l-3.6797-10.559c-0.92969-2.6602-4.6914-2.6602-5.6211 0l-3.6797 10.559c-0.92969 2.6719-3.0312 4.7695-5.6992 5.6992l-10.559 3.6797c-2.6602 0.92969-2.6602 4.6914 0 5.6211z"/>
 <path fill="#A87FFB" d="m43.551 53.07c-1.4805-0.51172-2.6406-1.6719-3.1484-3.1484l-2.0312-5.8281c-0.51172-1.4688-2.5898-1.4688-3.1016 0l-2.0312 5.8281c-0.51172 1.4805-1.6719 2.6406-3.1484 3.1484l-5.8281 2.0312c-1.4688 0.51172-1.4688 2.5898 0 3.1016l5.8281 2.0312c1.4805 0.51172 2.6406 1.6719 3.1484 3.1484l2.0312 5.8281c0.51172 1.4688 2.5898 1.4688 3.1016 0l2.0312-5.8281c0.51172-1.4805 1.6719-2.6406 3.1484-3.1484l5.8281-2.0312c1.4688-0.51172 1.4688-2.5898 0-3.1016z"/>
 <path fill="#A87FFB" d="m93.52 11.27-2.5195-0.87891c-0.64062-0.21875-1.1406-0.71875-1.3594-1.3594l-0.87891-2.5195c-0.21875-0.64062-1.1211-0.64062-1.3398 0l-0.87891 2.5195c-0.21875 0.64062-0.71875 1.1406-1.3594 1.3594l-2.5195 0.87891c-0.64062 0.21875-0.64062 1.1211 0 1.3398l2.5195 0.87891c0.64062 0.21875 1.1406 0.71875 1.3594 1.3594l0.87891 2.5195c0.21875 0.64062 1.1211 0.64062 1.3398 0l0.87891-2.5195c0.21875-0.64062 0.71875-1.1406 1.3594-1.3594l2.5195-0.87891c0.64062-0.21875 0.64062-1.1211 0-1.3398z"/>
 <path fill="#A87FFB" d="m88.078 49.16c-1.3711 0-2.4805 1.1094-2.4805 2.4805v21.379c0 8.8086-7.1719 15.988-15.988 15.988l-42.66 0.003907c-8.8086 0-15.988-7.1719-15.988-15.988v-42.664c0-8.8086 7.1719-15.988 15.988-15.988h21.379c1.3711 0 2.4805-1.1094 2.4805-2.4805s-1.1094-2.4805-2.4805-2.4805h-21.379c-11.551 0-20.949 9.3984-20.949 20.949v42.648c0 11.551 9.3984 20.949 20.949 20.949h42.648c11.551 0 20.949-9.3984 20.949-20.949v-21.379c0-1.3711-1.1094-2.4805-2.4805-2.4805z"/>
</svg>